Patient4_TMGait_0pt4_03_left_17_GRF.mot
version=1
nRows=32
nColumns=19
inDegrees=no
endheader
time	F1x	F1y	F1z	M1x	M1y	M1z	F2x	F2y	F2z	M2x	M2y	M2z	EC1x	EC1y	EC1z	EC2x	EC2y	EC2z
22.12	-9.1532	5.2235	-3.8465	-0.0095111	1.5708	2.7529	-28.9108	736.2248	-66.1414	284.25	83.9175	817.5367	-0.0592	0.0182	-0.0073	-0.0462	0.0165	0.9585
22.1334	-6.2004	4.0701	-2.6462	-0.17424	1.0825	2.5195	-27.0513	736.7984	-63.2347	283.7498	80.3267	816.4668	-0.0592	0.0182	-0.0073	-0.0462	0.0165	0.9585
22.1467	-3.6816	3.1092	-1.5965	-0.33308	0.64482	2.3456	-25.022	738.5123	-60.6128	283.7885	76.871	816.0632	-0.0592	0.0182	-0.0073	-0.0462	0.0165	0.9585
22.1601	-1.7493	2.3946	-0.76977	-0.47195	0.2856	2.2362	-22.9165	741.8633	-58.4831	284.5838	73.7947	816.8989	-0.0592	0.0182	-0.0073	-0.0462	0.0165	0.9585
22.1734	-0.4138	1.9198	-0.17702	-0.58375	0.010679	2.1921	-20.7953	747.0926	-56.9413	286.2162	71.2335	819.3189	-0.0592	0.0182	-0.0073	-0.0462	0.0165	0.9585
22.1868	0.40834	1.6368	0.20989	-0.66222	-0.18529	2.1781	-18.6967	754.0568	-55.9944	288.6004	69.2291	823.2751	-0.0592	0.0182	-0.0073	-0.0462	0.0165	0.9585
22.2001	0.82634	1.4688	0.4357	-0.70058	-0.31675	2.1413	-16.6617	762.2183	-55.5835	291.4941	67.7504	828.3023	-0.0592	0.0182	-0.0073	-0.0462	0.0165	0.9585
22.2135	0.94917	1.3231	0.55393	-0.68941	-0.4094	2.0176	-14.7135	770.7014	-55.6014	294.5295	66.7053	833.5618	-0.0592	0.0182	-0.0073	-0.0462	0.0165	0.9585
22.2269	0.88101	1.0974	0.59934	-0.61381	-0.47739	1.7219	-12.8612	778.443	-55.9035	297.2736	65.9547	838.0049	-0.0592	0.0182	-0.0073	-0.0462	0.0165	0.9585
22.2402	0.69344	0.69254	0.60413	-0.45462	-0.53928	1.1728	-11.0943	784.3681	-56.3295	299.2966	65.3402	840.5516	-0.0592	0.0182	-0.0073	-0.0462	0.0165	0.9585
22.2536	0.45016	0.014502	0.59026	-0.19103	-0.60211	0.28084	-9.3906	787.5907	-56.7454	300.2463	64.7274	840.3094	-0.0592	0.0182	-0.0073	-0.0462	0.0165	0.9585
22.2669	0.18971	-1.0058	0.5738	0.19482	-0.66717	-1.0113	-7.7247	787.5658	-57.063	299.9053	64.0278	836.7346	-0.0592	0.0182	-0.0073	-0.0462	0.0165	0.9585
22.2803	-0.038432	-2.3801	0.55891	0.70292	-0.72369	-2.7009	-6.0575	784.1378	-57.2614	298.2131	63.2167	829.6798	-0.0592	0.0182	-0.0073	-0.0462	0.0165	0.9585
22.2936	-0.17934	-4.0374	0.54527	1.3023	-0.75118	-4.6955	-4.3554	777.5892	-57.3652	295.2825	62.3175	819.4586	-0.0592	0.0182	-0.0073	-0.0462	0.0165	0.9585
22.307	-0.16842	-5.7637	0.51427	1.9166	-0.7049	-6.7464	-2.564	768.6066	-57.4167	291.3907	61.3616	806.7858	-0.0592	0.0182	-0.0073	-0.0462	0.0165	0.9585
22.3204	0.086986	-7.1394	0.44035	2.4013	-0.52053	-8.3814	-0.62046	758.1963	-57.4402	286.9436	60.3512	792.6941	-0.0592	0.0182	-0.0073	-0.0462	0.0165	0.9585
22.3337	0.69159	-7.4825	0.28275	2.5214	-0.11456	-8.806	1.5712	747.5144	-57.4449	282.4033	59.2535	778.353	-0.0592	0.0182	-0.0073	-0.0462	0.0165	0.9585
22.3471	1.7656	-5.807	-0.0079842	1.9346	0.6082	-6.8577	4.1228	737.6504	-57.4401	278.1962	58.0241	764.8548	-0.0592	0.0182	-0.0073	-0.0462	0.0165	0.9585
22.3604	3.4122	-0.79627	-0.47446	0.18536	1.7319	-0.97374	7.1058	729.4112	-57.4539	274.6272	56.6493	753.0149	-0.0592	0.0182	-0.0073	-0.0462	0.0165	0.9585
22.3738	5.6913	9.1221	-1.1458	-3.2709	3.3081	10.7175	10.5305	723.1498	-57.5189	271.8208	55.1456	743.2021	-0.0592	0.0182	-0.0073	-0.0462	0.0165	0.9585
22.3871	8.5504	25.5586	-2.0211	-8.992	5.3129	30.1482	14.3118	718.6724	-57.6506	269.691	53.5558	735.2689	-0.0592	0.0182	-0.0073	-0.0462	0.0165	0.9585
22.4005	11.7362	49.8123	-3.0501	-17.422	7.5906	58.8862	18.2838	715.1642	-57.8227	267.9227	51.9178	728.4614	-0.0592	0.0182	-0.0073	-0.0462	0.0165	0.9585
22.4139	14.6998	82.2409	-4.0922	-28.6709	9.7785	97.374	22.198	711.2505	-57.9434	265.9989	50.2357	721.4791	-0.0592	0.0182	-0.0073	-0.0462	0.0165	0.9585
22.4272	16.4759	121.3526	-4.8897	-42.2051	11.2296	143.8689	25.7644	705.1905	-57.8442	263.277	48.4586	712.6645	-0.0592	0.0182	-0.0073	-0.0462	0.0165	0.9585
22.4406	15.693	162.7589	-5.0095	-56.4844	10.9658	193.2107	28.6979	695.2027	-57.3191	259.1114	46.5015	700.3043	-0.0592	0.0182	-0.0073	-0.0462	0.0165	0.9585
22.4539	11.9845	199.5963	-3.8354	-69.0997	8.177	237.3349	30.7694	679.9366	-56.2166	253.0243	44.3108	683.0808	-0.0592	0.0182	-0.0073	-0.0462	0.0165	0.9585
22.4673	6.8737	226.7144	-1.2689	-78.2628	3.3289	270.0323	31.9059	658.9847	-54.5483	244.8812	41.9417	660.5618	-0.0592	0.0182	-0.0073	-0.0462	0.0165	0.9585
22.4806	1.7044	244.2581	1.9239	-84.0436	-2.2548	291.2704	32.1848	632.9599	-52.5387	234.9062	39.5949	633.3082	-0.0592	0.0182	-0.0073	-0.0462	0.0165	0.9585
22.494	-2.8418	255.8171	5.4212	-87.7001	-7.935	305.2076	31.8438	602.9901	-50.4761	223.5137	37.4661	602.3558	-0.0592	0.0182	-0.0073	-0.0462	0.0165	0.9585
22.5074	-6.537	265.7894	8.8412	-90.781	-13.2161	317.0088	31.1719	570.3627	-48.4428	211.1826	35.5346	568.9094	-0.0592	0.0182	-0.0073	-0.0462	0.0165	0.9585
22.5207	-9.5273	277.8164	12.2242	-94.5562	-18.1647	331.0221	30.4469	536.1975	-46.3194	198.3392	33.5942	534.032	-0.0592	0.0182	-0.0073	-0.0462	0.0165	0.9585
22.5341	-11.965	294.0227	15.4042	-99.7858	-22.6662	349.678	29.8442	501.259	-43.864	185.2794	31.3553	498.4568	-0.0592	0.0182	-0.0073	-0.0462	0.0165	0.9585
